<?xml version="1.0" encoding="UTF-8"?>
<svg id="Layer_1" xmlns="http://www.w3.org/2000/svg" version="1.1" viewBox="0 0 1187.6626 623.6067">
  <!-- Generator: Adobe Illustrator 30.2.1, SVG Export Plug-In . SVG Version: 2.1.1 Build 1)  -->
  <g>
    <g>
      <path d="M142.5913,517.7874h-16.0107v-7.7227c-4.7798,2.5137-10.8193,4.8037-18.1123,6.875-7.2964,2.0723-15.6611,3.1084-25.0938,3.1084-12.5791,0-23.3955-1.9775-32.4517-5.9336-9.0591-3.9551-16.5112-9.2295-22.3594-15.8223s-10.186-14.0625-13.0176-22.415c-2.8315-8.3506-4.2441-16.9824-4.2441-25.9004,0-10.4219,1.8188-19.7461,5.4624-27.9717,3.6406-8.2236,8.7266-15.1641,15.2578-20.8145,6.5278-5.6514,14.2832-9.9834,23.2627-12.9971,8.9766-3.0137,18.8042-4.5205,29.479-4.5205,9.2915,0,17.3589,1.0352,24.2046,3.1074,6.8428,2.0723,12.5879,4.6152,17.2354,7.6289,4.6445,3.0137,8.3174,6.248,11.0195,9.7012,2.6987,3.4551,4.6147,6.5625,5.7451,9.3232h-13.5625c-.7534-2.6367-2.4189-5.2412-4.9917-7.8164-2.5752-2.5723-5.8716-4.8652-9.8892-6.876-4.02-2.0068-8.6025-3.6406-13.7505-4.8975-5.1504-1.2529-10.6748-1.8828-16.5757-1.8828-8.918,0-16.7354,1.4443-23.4512,4.332-6.7197,2.8896-12.4028,6.9697-17.0474,12.2432-4.647,5.2744-8.1318,11.5557-10.4541,18.8369-2.3252,7.2842-3.4849,15.2568-3.4849,23.9219,0,8.792,1.2246,16.8584,3.6792,24.2051,2.4546,7.3457,6.1333,13.6885,11.043,19.0244,4.9062,5.3389,11.0723,9.5127,18.4946,12.5264,7.4229,3.0137,16.1025,4.5205,26.0444,4.5205,7.5493,0,14.2803-.877,20.1929-2.6367,5.9131-1.7578,11.7021-4.4561,17.3652-8.0996v-34.0938h-21.0967v-7.7227h37.1074v58.7686Z"/>
      <path d="M220.1943,385.9329c8.4116,0,15.3813,1.1631,20.9087,3.4854,5.5244,2.3252,9.8887,5.2119,13.0908,8.6641,3.2021,3.4561,5.4629,7.1904,6.7812,11.208,1.3184,4.0205,1.978,7.7227,1.978,11.1133,0,3.7676-.624,7.6289-1.8662,11.584-1.2417,3.9561-3.2314,7.6289-5.9658,11.0195-2.7368,3.3906-6.2603,6.2168-10.5688,8.4766-4.3086,2.2607-9.4771,3.5791-15.5049,3.9561v.7529l1.8838.9424c1.5068.7529,2.793,1.6943,3.8613,2.8252,1.0654,1.1299,2.4487,2.9521,4.144,5.4629,1.6953,2.5127,3.9761,6.0596,6.8462,10.6426,2.8662,4.585,6.9131,10.707,12.1348,18.3652,1.7393,2.6367,3.4229,4.9912,5.0474,7.0635s3.314,3.832,5.0737,5.2744c1.7573,1.4443,3.6411,2.543,5.6514,3.2959,2.0068.7539,4.332,1.1299,6.9692,1.1299.627,0,1.2539-.0293,1.8838-.0938.6265-.0615,1.2534-.1562,1.8833-.2822v6.9688c-1.7598,1.0039-3.5166,1.6309-5.2739,1.8838-1.7603.25-4.0205.377-6.7812.377-3.7671,0-6.9956-.5029-9.6802-1.5068-2.6841-1.0039-5.0859-2.3545-7.1987-4.0498-2.1133-1.6953-4.0737-3.7354-5.8745-6.1221-1.8047-2.3838-3.6377-5.0205-5.501-7.9111l-14.9365-22.0391c-2.2725-3.5137-4.2266-6.4658-5.8633-8.8525-1.6392-2.3838-3.4053-4.332-5.2944-5.8389-1.8896-1.5078-4.0029-2.5723-6.3335-3.2031-2.3311-.626-5.2627-.9414-8.7915-.9414h-8.3203v58.2041h-17.1411v-131.8545h42.7583ZM194.5771,451.1067h19.4751c5.0386,0,9.4829-.877,13.3267-2.6367,3.8438-1.7568,7.0898-4.0498,9.7388-6.875,2.646-2.8262,4.6299-5.9629,5.9541-9.4189,1.3242-3.4521,1.9868-6.875,1.9868-10.2656,0-4.0176-.7271-7.7227-2.1753-11.1133-1.4507-3.3906-3.561-6.3105-6.3335-8.7588-2.7725-2.4492-6.0835-4.3623-9.9272-5.7451-3.8438-1.3799-8.1616-2.0723-12.9502-2.0723h-19.0952v56.8857Z"/>
      <path d="M321.9087,478.9846l-16.5762,38.8027h-8.665l55.7559-131.8545h9.418l61.4067,131.8545h-18.271l-18.083-38.8027h-64.9854ZM353.3652,407.0296h-.7534l-27.1245,63.4785h57.4512l-29.5732-63.4785Z"/>
      <path d="M437.9399,385.9329l38.4263,69.5068h.7534l40.3101-69.5068h10.1714l-46.3374,80.2432v51.6113h-17.1411v-49.916l-45.584-81.9385h19.4014Z"/>
      <path d="M604.1187,517.7874v-131.8545h43.3232c10.4219,0,19.9668,1.666,28.6318,4.9922,8.665,3.3281,16.1045,7.9111,22.3213,13.75,6.2158,5.8398,11.0488,12.7793,14.5039,20.8145,3.4521,8.0381,5.1797,16.7021,5.1797,25.9941,0,9.6719-1.7891,18.5537-5.3682,26.6533s-8.4766,15.1016-14.6924,21.0029c-6.2158,5.9043-13.4678,10.4863-21.7559,13.75-8.2881,3.2676-17.1416,4.8975-26.5596,4.8975h-45.584ZM621.2598,509.4993h20.6704c10.2715,0,19.0068-1.7246,26.2119-5.1797,7.2041-3.4521,13.123-7.9404,17.7588-13.4678,4.6328-5.5244,8.0146-11.708,10.1455-18.5537,2.1309-6.8428,3.1963-13.6562,3.1963-20.4375,0-7.5352-1.2539-14.7871-3.7588-21.7559-2.5078-6.9697-6.1719-13.1211-10.9932-18.46-4.8232-5.3359-10.8037-9.5742-17.9443-12.7148-7.1396-3.1367-15.3457-4.709-24.6162-4.709h-20.6704v115.2783Z"/>
      <path d="M738.1392,429.0686c2.6992-8.0352,6.9375-15.4131,12.7148-22.1328,5.7744-6.7168,13.1211-12.2734,22.0381-16.6699,8.915-4.3945,19.5898-6.5928,32.0225-6.5928,12.5557,0,23.4512,2.2305,32.6807,6.6865,9.2295,4.459,16.8584,10.0771,22.8867,16.8584,6.0273,6.7812,10.4834,14.1602,13.374,22.1328,2.8867,7.9766,4.332,15.4785,4.332,22.5098,0,4.6475-.6592,9.5449-1.9785,14.6924-1.3184,5.1504-3.2666,10.2656-5.8389,15.3516-2.5752,5.0859-5.8721,9.9209-9.8887,14.5039-4.0205,4.585-8.7588,8.6357-14.2217,12.1494-5.4629,3.5176-11.6172,6.3105-18.46,8.3818-6.8457,2.0723-14.4746,3.1084-22.8857,3.1084-12.4326,0-23.1074-2.2305-32.0225-6.6865-8.917-4.4561-16.2637-10.0781-22.0381-16.8594-5.7773-6.7803-10.0156-14.1562-12.7148-22.1318-2.7012-7.9736-4.0498-15.4756-4.0498-22.5098,0-7.1582,1.3486-14.7539,4.0498-22.792ZM756.5991,476.0657c2.6992,7.3457,6.4043,13.6562,11.1133,18.9297,4.709,5.2744,10.2656,9.3887,16.6699,12.3379,6.4043,2.9521,13.374,4.4268,20.9092,4.4268,7.4072,0,14.4092-1.4746,21.002-4.4268,6.5928-2.9492,12.3672-7.0635,17.3301-12.3379,4.959-5.2734,8.8818-11.584,11.7725-18.9297,2.8867-7.3467,4.332-15.4141,4.332-24.2051s-1.4453-16.8584-4.332-24.2051c-2.8906-7.3457-6.8135-13.6562-11.7725-18.9307-4.9629-5.2744-10.7373-9.3857-17.3301-12.3379-6.5928-2.9482-13.5947-4.4258-21.002-4.4258-7.5352,0-14.5049,1.4775-20.9092,4.4258-6.4043,2.9521-11.9609,7.0635-16.6699,12.3379s-8.4141,11.585-11.1133,18.9307c-2.7021,7.3467-4.0498,15.417-4.0498,24.2051s1.3477,16.8584,4.0498,24.2051Z"/>
      <path d="M902.0142,429.0686c2.6992-8.0352,6.9365-15.4131,12.7148-22.1328,5.7734-6.7168,13.1201-12.2734,22.0381-16.6699,8.915-4.3945,19.5898-6.5928,32.0215-6.5928,12.5557,0,23.4512,2.2305,32.6816,6.6865,9.2295,4.459,16.8584,10.0771,22.8857,16.8584s10.4844,14.1602,13.374,22.1328c2.8877,7.9766,4.332,15.4785,4.332,22.5098,0,4.6475-.6592,9.5449-1.9775,14.6924-1.3184,5.1504-3.2666,10.2656-5.8398,15.3516-2.5742,5.0859-5.8711,9.9209-9.8887,14.5039-4.0205,4.585-8.7588,8.6357-14.2207,12.1494-5.4629,3.5176-11.6172,6.3105-18.46,8.3818-6.8467,2.0723-14.4746,3.1084-22.8867,3.1084-12.4316,0-23.1064-2.2305-32.0215-6.6865-8.918-4.4561-16.2646-10.0781-22.0381-16.8594-5.7783-6.7803-10.0156-14.1562-12.7148-22.1318-2.7021-7.9736-4.0498-15.4756-4.0498-22.5098,0-7.1582,1.3477-14.7539,4.0498-22.792ZM920.4731,476.0657c2.6992,7.3457,6.4043,13.6562,11.1133,18.9297,4.71,5.2744,10.2666,9.3887,16.6709,12.3379,6.4043,2.9521,13.374,4.4268,20.9082,4.4268,7.4082,0,14.4102-1.4746,21.0029-4.4268,6.5918-2.9492,12.3672-7.0635,17.3291-12.3379,4.959-5.2734,8.8828-11.584,11.7725-18.9297,2.8877-7.3467,4.332-15.4141,4.332-24.2051s-1.4443-16.8584-4.332-24.2051c-2.8896-7.3457-6.8135-13.6562-11.7725-18.9307-4.9619-5.2744-10.7373-9.3857-17.3291-12.3379-6.5928-2.9482-13.5947-4.4258-21.0029-4.4258-7.5342,0-14.5039,1.4775-20.9082,4.4258-6.4043,2.9521-11.9609,7.0635-16.6709,12.3379-4.709,5.2744-8.4141,11.585-11.1133,18.9307-2.7012,7.3467-4.0488,15.417-4.0488,24.2051s1.3477,16.8584,4.0488,24.2051Z"/>
      <path d="M1117.7827,385.9329c8.4111,0,15.3809,1.1631,20.9082,3.4854,5.5244,2.3252,9.8896,5.2119,13.0908,8.6641,3.2031,3.4561,5.4629,7.1904,6.7812,11.208,1.3184,4.0205,1.9785,7.7227,1.9785,11.1133,0,3.7676-.624,7.6289-1.8662,11.584-1.2422,3.9561-3.2314,7.6289-5.9658,11.0195-2.7373,3.3906-6.2598,6.2168-10.5693,8.4766-4.3086,2.2607-9.4766,3.5791-15.5049,3.9561v.7529l1.8838.9424c1.5068.7529,2.7939,1.6943,3.8623,2.8252,1.0645,1.1299,2.4482,2.9521,4.1436,5.4629,1.6953,2.5127,3.9756,6.0596,6.8457,10.6426,2.8662,4.585,6.9131,10.707,12.1348,18.3652,1.7393,2.6367,3.4229,4.9912,5.0479,7.0635,1.624,2.0723,3.3135,3.832,5.0742,5.2744,1.7568,1.4443,3.6406,2.543,5.6504,3.2959,2.0078.7539,4.332,1.1299,6.9697,1.1299.627,0,1.2539-.0293,1.8838-.0938.627-.0615,1.2539-.1562,1.8828-.2822v6.9688c-1.7598,1.0039-3.5166,1.6309-5.2734,1.8838-1.7598.25-4.0205.377-6.7812.377-3.7676,0-6.9961-.5029-9.6797-1.5068-2.6846-1.0039-5.0859-2.3545-7.1992-4.0498s-4.0742-3.7354-5.875-6.1221c-1.8047-2.3838-3.6377-5.0205-5.501-7.9111l-14.9365-22.0391c-2.2715-3.5137-4.2266-6.4658-5.8633-8.8525-1.6387-2.3838-3.4043-4.332-5.2939-5.8389-1.8896-1.5078-4.0029-2.5723-6.334-3.2031-2.3311-.626-5.2627-.9414-8.791-.9414h-8.3213v58.2041h-17.1406v-131.8545h42.7588ZM1092.1646,451.1067h19.4756c5.0391,0,9.4834-.877,13.3271-2.6367,3.8438-1.7568,7.0898-4.0498,9.7383-6.875,2.6465-2.8262,4.6299-5.9629,5.9541-9.4189,1.3252-3.4521,1.9873-6.875,1.9873-10.2656,0-4.0176-.7275-7.7227-2.1758-11.1133-1.4512-3.3906-3.5605-6.3105-6.333-8.7588-2.7725-2.4492-6.084-4.3623-9.9277-5.7451-3.8438-1.3799-8.1611-2.0723-12.9502-2.0723h-19.0957v56.8857Z"/>
    </g>
    <g>
      <path d="M334.0273,572.0462c4.7778,0,8.231,1.6084,11.4473,4.3994.4258.3779.4258.9463.0474,1.3242l-2.0815,2.1289c-.3311.4258-.7568.4258-1.1821,0-2.2236-1.9395-5.251-3.1689-8.1836-3.1689-6.7642,0-11.873,5.6758-11.873,12.2979s5.1562,12.252,11.9204,12.252c3.4531,0,5.8657-1.3721,8.1362-3.1221.4253-.3311.8511-.2842,1.1348-.0479l2.1758,2.1289c.3789.3311.2842.9463-.0469,1.2773-3.2168,3.1221-7.2847,4.5879-11.4946,4.5879-9.4604,0-17.0762-7.5205-17.0762-16.9814s7.6157-17.0762,17.0762-17.0762Z"/>
      <path d="M403.6108,572.0462c9.4609,0,17.0293,7.6162,17.0293,17.0762s-7.5684,16.9814-17.0293,16.9814-16.9814-7.5205-16.9814-16.9814,7.5215-17.0762,16.9814-17.0762ZM403.6108,601.3743c6.7646,0,12.2988-5.4873,12.2988-12.252,0-6.7168-5.5342-12.3457-12.2988-12.3457-6.7168,0-12.251,5.6289-12.251,12.3457,0,6.7646,5.5342,12.252,12.251,12.252Z"/>
      <path d="M464.3013,572.8977c0-.4727.4253-.8516.8984-.8516h1.1826l20.5293,23.7461h.0469v-22.374c0-.4736.3789-.8984.8989-.8984h3.0273c.4731,0,.8989.4248.8989.8984v31.834c0,.4736-.4258.8516-.8989.8516h-1.23l-20.5293-24.4072h-.0469v23.0352c0,.4736-.3784.8994-.8989.8994h-2.98c-.4731,0-.8984-.4258-.8984-.8994v-31.834Z"/>
      <path d="M552.521,572.0462c4.7773,0,8.2305,1.6084,11.4473,4.3994.4258.3779.4258.9463.0474,1.3242l-2.0815,2.1289c-.3311.4258-.7568.4258-1.1826,0-2.2231-1.9395-5.2505-3.1689-8.1831-3.1689-6.7642,0-11.8726,5.6758-11.8726,12.2979s5.1558,12.252,11.9199,12.252c3.4531,0,5.8652-1.3721,8.1357-3.1221.4258-.3311.8516-.2842,1.1357-.0479l2.1758,2.1289c.3779.3311.2837.9463-.0474,1.2773-3.2168,3.1221-7.2847,4.5879-11.4946,4.5879-9.4604,0-17.0762-7.5205-17.0762-16.9814s7.6157-17.0762,17.0762-17.0762Z"/>
      <path d="M607.6772,573.4182c0-.4736.4253-.8984.8984-.8984h3.1221c.4727,0,.8984.4248.8984.8984v31.3135c0,.4736-.4258.8994-.8984.8994h-3.1221c-.4731,0-.8984-.4258-.8984-.8994v-31.3135Z"/>
      <path d="M658.6694,573.4182c0-.4736.3779-.8984.8984-.8984h18.9209c.5205,0,.8984.4248.8984.8984v2.6494c0,.4727-.3779.8984-.8984.8984h-14.9473v9.6494h12.6299c.4727,0,.8984.4258.8984.8984v2.6494c0,.5205-.4258.8984-.8984.8984h-12.6299v10.1699h14.9473c.5205,0,.8984.4258.8984.8984v2.6016c0,.4736-.3779.8994-.8984.8994h-18.9209c-.5205,0-.8984-.4258-.8984-.8994v-31.3135Z"/>
      <path d="M723.4272,573.4182c0-.4736.3779-.8984.8984-.8984h12.8662c5.6768,0,10.3125,4.4932,10.3125,10.1221,0,4.3516-2.8857,7.9473-7.001,9.6025l6.4805,12.0146c.3311.6152,0,1.3721-.8037,1.3721h-3.6904c-.3779,0-.6621-.2363-.7568-.4258l-6.291-12.5352h-7.1426v12.0615c0,.4736-.4258.8994-.8984.8994h-3.0752c-.5205,0-.8984-.4258-.8984-.8994v-31.3135ZM736.814,588.6018c3.0742,0,5.7705-2.6016,5.7705-5.8652,0-3.0742-2.6963-5.6289-5.7705-5.6289h-8.4199v11.4941h8.4199Z"/>
      <path d="M806.397,572.0462c4.541,0,8.2773,1.6562,11.4941,4.3994.3779.3779.4258.9463.0469,1.3242-.709.7568-1.4189,1.4668-2.1289,2.2236-.3779.4258-.7559.3779-1.2295-.0479-2.2236-1.9395-5.1553-3.2158-8.041-3.2158-6.7178,0-11.873,5.6758-11.873,12.2979,0,6.5752,5.1553,12.252,11.873,12.252,3.9258,0,6.6221-1.4189,7.0947-1.6084v-5.2979h-4.6348c-.5215,0-.8994-.3789-.8994-.8516v-2.7432c0-.5205.3779-.8994.8994-.8994h8.6084c.4736,0,.8516.4258.8516.8994,0,3.7832.0479,7.6621.0479,11.4463,0,.2373-.1895.6152-.3789.7568,0,0-4.8721,3.1221-11.7305,3.1221-9.4141,0-17.0293-7.5205-17.0293-16.9814s7.6152-17.0762,17.0293-17.0762Z"/>
      <path d="M862.8286,573.4182c0-.4736.3789-.8984.8994-.8984h18.9209c.5195,0,.8984.4248.8984.8984v2.6494c0,.4727-.3789.8984-.8984.8984h-14.9473v9.6494h12.6289c.4736,0,.8984.4258.8984.8984v2.6494c0,.5205-.4248.8984-.8984.8984h-12.6289v10.1699h14.9473c.5195,0,.8984.4258.8984.8984v2.6016c0,.4736-.3789.8994-.8984.8994h-18.9209c-.5205,0-.8994-.4258-.8994-.8994v-31.3135Z"/>
    </g>
  </g>
  <g>
    <polygon points="683.6154 82.9041 682.2879 73.3707 680.5984 65.5268 678.547 59.6137 676.1334 54.4246 674.5647 51.1664 672.5132 47.5461 669.979 43.2018 665.7553 37.4094 662.7385 33.5478 657.9114 28.1174 653.0844 23.1697 647.2921 17.9806 640.6548 13.0329 635.1038 9.4127 626.8979 6.2751 621.2261 4.103 615.0717 2.6548 610.0033 1.4481 605.1762 .724 599.9873 0 593.1087 0 588.5231 0 583.4547 .4827 576.9382 1.2067 571.5077 2.7755 564.388 4.5857 556.4234 7.9646 548.9415 12.6709 541.339 17.6186 533.3743 24.7385 527.8233 31.0136 522.5135 37.6507 516.1177 47.3048 511.1701 58.2863 509.1186 63.1133 506.8258 73.3707 505.619 82.3007 504.2915 91.7134 503.4468 101.0054 503.4468 109.8147 503.9295 124.0544 504.2915 136.0013 504.5329 149.7583 504.8949 166.8942 504.8949 198.8732 505.3776 209.6133 505.619 227.2319 505.3776 239.2995 505.7397 253.1772 505.4983 273.692 505.0759 296.4393 515.3937 296.4393 515.3937 270.9165 516.7513 217.9701 516.7513 169.9111 516.7513 131.3553 515.6652 113.4349 515.6652 94.7001 518.652 81.1241 520.8241 71.6209 526.526 58.0449 533.857 46.098 544.4463 33.3366 554.4926 25.734 564.8103 19.7606 573.2274 16.5024 586.2603 13.7872 603.9092 13.7872 611.2402 15.1448 618.8428 17.3169 628.6175 22.4758 637.5776 28.1777 646.8093 36.8664 653.8689 44.4689 658.4847 51.2569 662.286 57.7734 665.2726 64.0183 667.7163 69.9918 669.0739 78.1374 669.617 89.1792 669.617 104.1429 670.341 118.262 670.341 136.846 670.341 154.2233 670.341 167.8596 670.341 182.4613 670.341 201.4074 670.341 217.9399 670.341 237.1273 670.341 265.3654 670.341 269.8304 670.341 273.9334 670.341 280.8119 670.341 286.3629 671.0651 294.3275 671.6685 295.655 674.2026 295.7756 682.7706 295.1722 684.2187 294.4482 684.2187 266.2101 683.4947 233.7484 684.2187 207.0791 684.2187 173.4107 683.6154 153.8613 684.2187 132.381 684.2187 110.6594 684.2187 92.4374 683.6154 82.9041" fill="#68161a"/>
    <polygon points="573.7835 33.1716 566.9196 36.6533 563.0399 38.7423 558.8619 42.0251 554.6838 45.8052 549.71 51.2764 545.1341 57.5435 540.8566 65.1038 537.5738 71.2714 535.4848 77.3395 533.8303 83.905 532.5005 91.4652 531.9036 100.5177 531.5057 107.879 531.5057 119.2194 532.3015 127.5755 532.5005 133.7208 533.8303 133.7208 552.2207 133.7208 566.3034 133.7208 579.5577 133.7208 579.5577 125.1055 579.5577 112.3482 579.5577 99.2595 579.8868 97.4067 580.3908 85.9259 580.7828 76.3493 580.7828 70.5337 580.7828 65.5899 580.7828 55.2661 580.7828 46.3963 580.7828 37.0903 580.7828 30.8379 578.8568 30.8379 573.7835 33.1716" fill="#68161a"/>
    <path d="M581.7873,27.8954l-1.0045-.01-1.9273.5656-3.0414,1.2621-4.138,2.0691-4.6097,2.259-4.1618,2.2207-3.1741,2.0241-3.1288,2.7044-3.6471,3.4169-1.9408,2.0336-2.0403,2.32-2.1656,2.9032-2.2122,3.0881-1.8985,2.7794-1.9364,3.3203-1.9834,3.644-1.8854,3.7702-1.3338,2.6221-1.1228,3.2657-1.4515,4.4297-.9294,3.3458-.6918,3.4335-.6558,3.0666-.3772,2.2695-.2623,3.0759-.2996,5.2766-.2611,5.5634-.2629,3.4651.0009,11.4302.3741,5.1621.4479,5.9249.0398,5.3258h51.475l-.0013-21.0477.3021-3.3303-.0006-10.861.2971-5.0505.1978-5.0761.2971-7.0273.2307-8.6081.165-9.6325v-30.9997l-.1719-6.1099-1.11-.2847ZM582.428,65.2842l-.165,9.6239-.2304,8.6001-.2968,7.0232-.1975,5.071-.2974,5.063.0013,10.8506-.3021,3.3303v20.4357h-50.1978l-.0357-4.7111-.4489-5.9457-.3731-5.138-.0009-11.3826.2626-3.4502.2614-5.5695.2986-5.2644.2586-3.0413.3713-2.2297.6539-3.056.6874-3.4146.9197-3.3094,1.4459-4.4117,1.0966-3.1989,1.3248-2.604,1.881-3.7623,1.9737-3.6259,1.9195-3.2928,1.8819-2.7542,2.2047-3.0771,2.1458-2.8782,2.0153-2.2905,1.9192-2.0114,3.6249-3.3959,3.0646-2.6528,3.1328-1.9989,4.1305-2.2031,4.6022-2.2551,4.1198-2.061,2.9754-1.2357,1.7743-.5337h.8374l.6026.1545.1581,5.6181v30.9852Z" fill="#68161a"/>
    <polygon points="608.0994 65.9485 608.0994 80.5819 608.2636 88.716 608.4893 101.0604 608.2636 111.5653 608.4688 121.2528 608.7151 128.2424 608.7151 134.3204 652.7952 134.3204 652.7952 127.4249 652.4259 115.8164 652.1796 101.837 652.4259 94.8882 652.4259 78.579 651.646 75.2681 648.8962 68.1149 642.4934 55.5662 637.6503 49.0261 629.7291 41.1781 625.0502 38.0307 618.0318 33.4118 611.8343 30.06 607.3196 29.3651 607.3196 31.4906 608.0994 49.394 608.0994 65.9485" fill="#68161a"/>
    <path d="M605.9374,36.451l.0952,7.1454.3302,5.7554.2357,6.3682.0945,6.8347-.236,8.5635.1888,9.7243.0476,8.7935.3061,8.9488-.2592,6.2002v7.8014l.2592,9.4985.3077,6.7233-.324,6.6175h47.6257l-.0003-7.4184-.3775-8.7314-.236-9.4362.0473-12.5178-.0473-12.1339.0473-6.3757.0003-.0254-.571-3.7562-2.426-6.0647-1.6531-4.2978-2.7074-4.4737-3.3059-6.2813-2.8154-3.6345-3.3532-4.3922-4.8044-4.495-3.1857-2.5517-3.5892-2.8337-4.9832-2.7102-3.5695-2.7242-3.6349-1.5108-4.0165-1.3413h-3.773l.0006,3.9287.2827,4.8025ZM606.2952,28.3608h3.028l3.8966,1.3006,3.5031,1.4456,3.556,2.7137,4.9763,2.7057,3.5661,2.8153,3.1657,2.5343,4.7302,4.4211,3.3385,4.3729,2.7694,3.567,3.3022,6.2732,2.6771,4.415,1.6447,4.2754,2.3944,5.9634.5575,3.669-.047,6.3539.0473,12.135-.0473,12.5246.2363,9.4514.3775,8.7233v6.7635h-46.3115l.2914-5.9753-.3074-6.7477-.2589-9.4839-.0003-7.7792.2589-6.2112-.3058-8.964-.0473-8.7888-.1888-9.7137.236-8.5616-.0948-6.8556-.2363-6.3821-.3299-5.7477-.0952-7.1459-.2827-4.7983v-3.2688Z" fill="#68161a"/>
    <polygon points="531.6982 198.7102 531.0107 215.9085 531.0107 244.2652 531.0107 265.6608 551.636 265.6608 560.8683 266.275 571.3774 265.8655 579.2346 266.275 579.2346 250.2028 579.2346 237.8159 579.6275 226.3821 579.6275 216.1132 579.6275 200.7576 579.6275 189.3944 579.6275 186.4892 557.1361 186.4892 531.6982 186.4892 531.6982 198.7102" fill="#68161a"/>
    <polygon points="609.1825 198.5893 608.5385 215.6176 608.5385 243.6939 608.5385 264.8779 627.8581 264.8779 636.5058 265.4861 646.3496 265.0806 653.7094 265.4861 653.7094 249.5727 653.7094 237.3083 654.0774 225.9877 654.0774 215.8203 654.0774 200.6165 654.0774 189.3657 654.0774 186.4892 633.01 186.4892 609.1825 186.4892 609.1825 198.5893" fill="#68161a"/>
    <path d="M607.5902,184.6824l-.0639,2.5756v7.114l-.1118,11.591-.3365,8.5286-.056,8.8563v7.7842l-.1121,6.7302v18.9898l-.2316,9.6189,1.8675.0682,4.7371-.1124h6.1051l5.8875.056,3.9048-.0006,6.0816.3368,8.0506-.2799,11.9847.288v-2.8527l-.056-7.3923.1121-14.7905.1681-7.8436.1299-4.7753.0188-7.001.1064-4.996-.1443-12.7842.0707-6.5652v-12.8387l-6.2494-.1524-8.4725.1524-10.5733-.3052h-22.8175ZM649.4501,185.4762l5.3829.1524h.2288v12.1942l-.0707,6.5687.1443,12.7811-.1064,4.9913-.0188,6.9991-.1299,4.7694-.1681,7.8502-.1121,14.7995.056,7.3948v2.1934l-11.3471-.272-8.0405.2805-6.0703-.3371h-3.9195l-5.8875-.056h-6.1157l-4.7252.1127-1.2158-.0448.2166-8.9937v-18.9923l.1121-6.7302v-7.7876l.0557-8.8438.3365-8.5273.1121-11.6035v-7.1093l.0482-1.9424h22.1827l10.5789.3052,8.4728-.1524Z" fill="#68161a"/>
    <path d="M539.6343,184.7024l-5.2665-.1803h-4.4457l.2814,8.3968-.0898,7.0817-.3603,10.1814-.2107,5.2395v16.5268l.1503,8.588.0601,6.4835-.0601,9.7644v10.2631l2.693.2651h6.8839l6.7421-.1449,5.9952.1443,5.7272.3349,3.5348.3024,5.8005-.2711,6.7687.0294,3.9038.2404.0219.0013,3.1751-.2392-.1437-.7281.4818-3.6146.0028-43.139.3259-14.8371v-20.4789h-3.7266l-13.6285.1202-15.6109-.1202-9.0056-.21ZM564.2512,185.6737l13.631-.1202h3.0827v19.8306l-.3259,14.8371v43.0826l-.4927,3.6982.0241.1233-2.4107.1816-3.9001-.2398-6.8034-.0297-5.7745.2695-3.5013-.2993-5.7466-.3362-6.0209-.1449-6.7499.1449-6.8454.0016-2.0835-.2066v-9.6802l.0601-9.7672-.0601-6.491-.1503-8.5852-.0003-16.5084.2104-5.2283.3606-10.1901.0898-7.1036-.2592-7.7491,3.7717-.0003,5.2589.1803,9.0141.2104,15.6212.1202Z" fill="#68161a"/>
    <path d="M593.829,43.7757l-.0305-3.6501-.0712-4.1803.061-4.8672-.081-3.5358.0098-3.0635.0508-4.5092-.0442-3.6894-.0312-.9534h-5.3721l-3.7967.345-4.6936.8282-6.5573,1.7949-7.179,3.0369-7.2477,4.0036-4.0723,2.2781-5.9363,4.9005-5.384,4.7631-3.8654,4.6936-2.9681,3.1754-4.7631,7.5236-3.5201,6.4195-2.7609,5.384-3.1754,6.4882-2.0018,8.8354-1.7946,7.869-1.3805,7.2477-.0691,7.5931.2069,13.184.8286,14.6335-.2763,19.2581.345,18.4989-.276,18.9131-.0691,15.1167.1382,14.7717-.2072,6.6954-.4141,14.0813-.2069,13.6672-.4141,15.9453v29.1678h75.924v-81.2421l.4478-23.3812.4821-55.0017v-51.7969l.135-16.8106-.0203-11.4182-.0407-3.8507.0712-4.3521.0203-4.81ZM586.3576,183.6991v42.5513l-.4909,13.1535v32.7398l-9.8189-.4709-13.1324.4709-11.5374-.7065h-25.7743v-57.2357l.8594-19.7854v-14.0588h59.8945v3.3419ZM550.1942,164.0266l.514,1.3955.8812.5877,1.3219.3668h2.0561l1.9829-.1466,1.175-.1469.9544-.8079.0736-1.3219c.0813-.3282.1627-.6567.244-.9853l-.7174.0396-.6631.1185v.5631l-.1529.4741h-.8156l-.7139-.2665-.1781-.8598v-2.4895l.3058-.3261h.6371l.2549.6224.2549.3559.6375.1185h.9432l.7135-.0298.7647-.0298.4337-.0295.3822-.074.0256-.3408-.2297-.4593,1.1957.0137c.1227.2454.2451.4912.3678.7367.0887.3622.1778.7248.2665,1.087-.0645.2672-.1294.5347-.1939.8019-.027.2416-.054.4832-.0813.7248l-.9429.222h-.3061l-.1276-.9927c-.0828.0042-.1659.0088-.2486.013v2.9012l-.9544,1.7627-1.1017.9548h-7.4903l-2.35-.9548-1.1017-2.35-.661-2.4969v-2.89l.5877-3.0583,1.7623-1.9096,1.5421-.8075,2.35-.7346h2.5705l1.7623.7346,1.3738.661.9762,1.2483c.061.4425.122.8847.1834,1.3272h-2.2816l-.3254-.7395-1.5421-1.1017-1.6154-.0733-1.9096.4408-1.3952.7342-1.175,1.6157-.5873,1.838v1.9804l.3671,1.9825ZM586.6781,63.7975v20.4555l-.3562,7.6976v32.144l.3562,12.7576v4.2641h-59.7266v-8.6828l-.9979-14.6111v-19.6l.499-6.0583,1.8531-8.909,2.0667-10.192,2.4233-5.4882,2.9226-5.6305,4.1337-6.7708,2.4233-4.3476,2.4944-3.2073,3.2073-3.4212,2.9934-3.2073,4.349-3.8486,2.5646-2.2809,4.7753-3.1361,5.4882-2.7795,5.9156-2.7083,4.4187-1.3542,3.9913-.9979h3.7774v4.134l.4278,6.4857-.2851,5.8444-.0712,5.7729v8.4816l.3562,9.1941Z" fill="#68161a"/>
    <path d="M669.8399,291.1542l-.4141-6.0741-.2072-8.2831.1382-9.8017.0691-11.4581-.345-17.6017.2069-12.4249.0691-10.4231.2072-10.5609-.1382-17.3944-.1382-8.0068v-14.1503l-.1378-18.2921.2069-19.0512-.1382-11.8722-.6901-11.1135v-19.1199l-.4832-7.9381-1.1045-5.039-1.1045-4.0036-1.9327-4.7627-3.9342-7.7999-4.694-7.5927-5.315-6.8336-6.9717-6.7645-5.66-5.039-6.1432-4.0723-6.2813-3.7276-5.8676-3.1063-4.9005-1.5183-6.9027-1.5186-4.5558-.4832h-8.0531v172.7859l-.467,26.3683v60.3535l.467,21.3875v.2174h34.8352l39.0688-.3152h1.4495l.2763-.6901v-.7595l-.4145-3.5204ZM601.9059,56.5848l-.1115-13.4989-.0281-11.6303v-7.571h9.247l7.1421,2.7322,7.8161,5.0534,7.2768,4.9857,3.9079,3.6386,6.4686,5.7946,3.2343,4.9861,3.2339,6.4682,2.9646,4.9861,2.479,5.5446,2.3139,5.3991,1.5428,5.6565v26.4823l.1939,7.2193.676,9.591v18.6939h-57.7718v-10.2586l-.195-5.5222-.3349-4.6859.3068-8.2835-.1673-9.2316-.1396-10.5149-.3349-9.0924.3629-4.6298.0835-10.0963-.1673-12.2162ZM626.0778,162.9484l-.1276.9927h-.3061l-.9429-.222c-.0273-.2416-.0543-.4832-.0813-.7248-.0645-.2672-.1294-.5347-.1939-.8019.0887-.3622.1778-.7248.2665-1.087.1227-.2454.2451-.4912.3678-.7367l1.1957-.0137-.2297.4593.0256.3408.3822.074.4337.0295.7647.0298.7135.0298h.9432l.6375-.1185.2549-.3559.2549-.6224h.6371l.3058.3261v2.4895l-.1781.8598-.7139.2665h-.8156l-.1529-.4741v-.5631l-.6631-.1185-.7174-.0396c.0813.3285.1627.6571.244.9853l.0736,1.3219.9544.8079,1.175.1469,1.9829.1466h2.0561l1.3219-.3668.8812-.5877.514-1.3955.3671-1.9825v-1.9804l-.5873-1.838-1.175-1.6157-1.3952-.7342-1.9096-.4408-1.6154.0733-1.5421,1.1017-.3254.7395h-2.3279c.0768-.4425.1532-.8847.2297-1.3272l.9762-1.2483,1.3738-.661,1.7623-.7346h2.5705l2.35.7346,1.5421.8075,1.7623,1.9096.5877,3.0583v2.89l-.661,2.4969-1.1017,2.35-2.35.9548h-7.4903l-1.1017-.9548-.9544-1.7627v-2.9012c-.0828-.0042-.1659-.0088-.2486-.013ZM661.5217,183.6991v42.5513l-.4842,13.1535v32.7398l-9.6829-.4709-12.9512.4709-11.3775-.7065h-25.4181v-57.2357l.8471-19.7854v-14.0588h59.0667v3.3419Z" fill="#68161a"/>
  </g>
</svg>